v -0.6666667 0.1248924 42.66667
v -42.66667 0.1248924 42.66667
v -42.66667 0.1248924 0.6666667
v -0.6666667 0.1248924 0.6666667
v -85.33334 0.1248924 42.66667
v -85.33334 0.1248924 0.6666667
v -99.33334 0.1248924 42.66667
v -99.33334 0.1248924 0.6666667
v -0.6666667 0.1248924 85.33334
v -42.66667 0.1248924 85.33334
v -85.33334 0.1248924 85.33334
v -99.33334 0.1248924 85.33334
v -42.66667 0.1248924 99.33334
v -0.6666667 0.1248924 99.33334
v -85.33334 0.1248924 99.33334
v -99.33334 0.1248924 99.33334

f 4 3 2 1
f 3 6 5 2
f 6 8 7 5
f 1 2 10 9
f 2 5 11 10
f 5 7 12 11
f 14 9 10 13
f 10 11 15 13
f 11 12 16 15
